# Blender v2.81 (sub 16) OBJ File: ''
# www.blender.org
mtllib cube.mtl
o Cube.001
v -1.000000 1.000000 1.000000
v -1.000000 -1.000000 -1.000000
v -1.000000 -1.000000 1.000000
v 1.000000 -1.000000 -1.000000
v 1.000000 1.000000 -1.000000
v 1.000000 -1.000000 1.000000
v -1.000000 1.000000 -1.000000
v 1.000000 1.000000 1.000000
vt 0.625000 0.000000
vt 0.375000 0.250000
vt 0.375000 0.000000
vt 0.375000 0.500000
vt 0.125000 0.750000
vt 0.125000 0.500000
vt 0.625000 0.500000
vt 0.375000 0.750000
vt 0.625000 0.250000
vt 0.625000 0.750000
vt 0.875000 0.500000
vt 0.875000 0.750000
vt 0.375000 1.000000
vt 0.625000 1.000000
vn -1.0000 -0.0000 0.0000
vn 0.0000 -1.0000 -0.0000
vn 1.0000 -0.0000 0.0000
vn 0.0000 0.0000 -1.0000
vn 0.0000 1.0000 0.0000
vn 0.0000 -0.0000 1.0000
usemtl m1
s 1
f 1/1/1 2/2/1 3/3/1
f 4/4/2 3/5/2 2/6/2
f 5/7/3 6/8/3 4/4/3
f 7/9/4 4/4/4 2/2/4
f 1/1/1 7/9/1 2/2/1
f 4/4/2 6/8/2 3/5/2
f 5/7/3 8/10/3 6/8/3
f 7/9/4 5/7/4 4/4/4
usemtl m2
f 7/11/5 8/10/5 5/7/5
f 7/11/5 1/12/5 8/10/5
usemtl m3
f 8/10/6 3/13/6 6/8/6
f 8/10/6 1/14/6 3/13/6
